<svg xmlns="http://www.w3.org/2000/svg" viewBox="0 0 800 600" role="img" aria-label="Business support workspace">
  <rect width="800" height="600" rx="32" fill="#f4f8fc"/>
  <rect x="60" y="80" width="680" height="440" rx="28" fill="url(#bg)"/>
  <rect x="100" y="130" width="260" height="180" rx="20" fill="#ffffff" fill-opacity="0.95"/>
  <rect x="130" y="165" width="120" height="18" rx="9" fill="#1d7af6" fill-opacity="0.8"/>
  <rect x="130" y="195" width="190" height="14" rx="7" fill="#9fb9d5"/>
  <rect x="130" y="220" width="170" height="14" rx="7" fill="#9fb9d5"/>
  <rect x="420" y="140" width="250" height="220" rx="24" fill="#ffffff" fill-opacity="0.95"/>
  <rect x="450" y="172" width="120" height="95" rx="14" fill="#0f2c63"/>
  <rect x="585" y="175" width="58" height="18" rx="9" fill="#1d7af6"/>
  <rect x="585" y="205" width="80" height="12" rx="6" fill="#9fb9d5"/>
  <rect x="585" y="225" width="60" height="12" rx="6" fill="#9fb9d5"/>
  <rect x="110" y="370" width="270" height="110" rx="22" fill="#ffffff" fill-opacity="0.95"/>
  <rect x="140" y="400" width="90" height="60" rx="14" fill="#1d7af6"/>
  <rect x="250" y="400" width="90" height="60" rx="14" fill="#0f2c63"/>
  <circle cx="620" cy="420" r="82" fill="#dceaf8"/>
  <circle cx="620" cy="420" r="54" fill="#1d7af6" fill-opacity="0.85"/>
  <path d="M240 500c14-40 33-56 58-56 28 0 48 18 61 56" fill="none" stroke="#0f2c63" stroke-width="12" stroke-linecap="round"/>
  <rect x="300" y="320" width="110" height="22" rx="11" fill="#0f2c63" fill-opacity="0.2"/>
  <defs>
    <linearGradient id="bg" x1="60" y1="80" x2="740" y2="520" gradientUnits="userSpaceOnUse">
      <stop offset="0%" stop-color="#dfeefc"/>
      <stop offset="100%" stop-color="#b9d7f5"/>
    </linearGradient>
  </defs>
</svg>