<svg xmlns="http://www.w3.org/2000/svg" viewBox="0 0 800 600" role="img" aria-label="Retail essentials and everyday items">
  <rect width="800" height="600" rx="32" fill="#fcfdff"/>
  <rect x="70" y="90" width="660" height="430" rx="30" fill="url(#bg)"/>
  <rect x="140" y="140" width="220" height="180" rx="24" fill="#ffffff" fill-opacity="0.95"/>
  <rect x="175" y="180" width="150" height="20" rx="10" fill="#1d7af6"/>
  <rect x="175" y="214" width="105" height="12" rx="6" fill="#9fb9d5"/>
  <rect x="175" y="238" width="125" height="12" rx="6" fill="#9fb9d5"/>
  <rect x="440" y="140" width="220" height="180" rx="24" fill="#ffffff" fill-opacity="0.95"/>
  <rect x="480" y="180" width="140" height="20" rx="10" fill="#0f2c63"/>
  <rect x="480" y="214" width="105" height="12" rx="6" fill="#9fb9d5"/>
  <rect x="480" y="238" width="120" height="12" rx="6" fill="#9fb9d5"/>
  <rect x="140" y="360" width="520" height="110" rx="26" fill="#ffffff" fill-opacity="0.95"/>
  <rect x="178" y="392" width="95" height="46" rx="14" fill="#1d7af6"/>
  <rect x="315" y="392" width="95" height="46" rx="14" fill="#0f2c63"/>
  <rect x="452" y="392" width="95" height="46" rx="14" fill="#1d7af6"/>
  <defs>
    <linearGradient id="bg" x1="70" y1="90" x2="730" y2="520" gradientUnits="userSpaceOnUse">
      <stop offset="0%" stop-color="#e8f5ff"/>
      <stop offset="100%" stop-color="#d0e8f9"/>
    </linearGradient>
  </defs>
</svg>